<?xml version="1.0" encoding="UTF-8" standalone="no"?>
<svg
   xmlns:dc="http://purl.org/dc/elements/1.1/"
   xmlns:cc="http://creativecommons.org/ns#"
   xmlns:rdf="http://www.w3.org/1999/02/22-rdf-syntax-ns#"
   xmlns:svg="http://www.w3.org/2000/svg"
   xmlns="http://www.w3.org/2000/svg"
   xmlns:sodipodi="http://sodipodi.sourceforge.net/DTD/sodipodi-0.dtd"
   xmlns:inkscape="http://www.inkscape.org/namespaces/inkscape"
   width="60mm"
   height="60mm"
   viewBox="0 0 60 59.999999"
   version="1.1"
   id="svg8"
   inkscape:version="1.0.2 (e86c870879, 2021-01-15)"
   sodipodi:docname="10.svg">
  <defs
     id="defs2" />
  <sodipodi:namedview
     id="base"
     pagecolor="#ffffff"
     bordercolor="#666666"
     borderopacity="1.0"
     inkscape:pageopacity="0.0"
     inkscape:pageshadow="2"
     inkscape:zoom="1.4"
     inkscape:cx="340.22858"
     inkscape:cy="161.14453"
     inkscape:document-units="mm"
     inkscape:current-layer="layer1"
     inkscape:document-rotation="0"
     showgrid="false"
     inkscape:window-width="1560"
     inkscape:window-height="1041"
     inkscape:window-x="2102"
     inkscape:window-y="0"
     inkscape:window-maximized="0"
     fit-margin-top="4.6"
     fit-margin-left="4.6"
     fit-margin-right="4.6"
     fit-margin-bottom="4.6"
     lock-margins="false" />
  <metadata
     id="metadata5">
    <rdf:RDF>
      <cc:Work
         rdf:about="">
        <dc:format>image/svg+xml</dc:format>
        <dc:type
           rdf:resource="http://purl.org/dc/dcmitype/StillImage" />
        <dc:title></dc:title>
      </cc:Work>
    </rdf:RDF>
  </metadata>
  <g
     inkscape:label="Warstwa 1"
     inkscape:groupmode="layer"
     id="layer1"
     transform="translate(5.4875062,5.7921927)">
    <path
       style="fill:#ff0000;fill-opacity:1;stroke:#ff0000;stroke-width:4.89731;stroke-linecap:round;stroke-linejoin:round;stroke-miterlimit:4;stroke-dasharray:none;stroke-dashoffset:10.6583;stroke-opacity:1;paint-order:markers stroke fill"
       id="path833-8"
       d="m 1.2635981,2.1044665 c 2.134212,-0.07967 4.260574,0.321471 6.367565,0.622576 3.5296899,0.504419 2.0042306,0.297065 5.6567769,0.753967 3.066173,0.323111 6.139813,0.566023 9.216195,0.7495 1.926771,0.114913 3.277112,0.190591 5.188617,0.184947 0.753567,-0.0022 1.50672,-0.03762 2.260079,-0.05642 3.866637,-0.234818 7.70439,-0.888278 11.477671,-1.796757 1.460389,-0.374774 2.866422,-0.929447 4.24499,-1.553311 0,0 1.807528,-1.51288402 1.807528,-1.51288402 v 0 c -1.403764,0.67005 -2.836481,1.269713 -4.331037,1.67889402 -0.536458,0.137476 -1.070101,0.287856 -1.609374,0.412436 -3.268366,0.755025 -6.599582,1.217388 -9.932611,1.491072 -0.761731,0.02874 -1.523066,0.07378 -2.285191,0.08622 -2.024245,0.03302 -3.20095,-0.02151 -5.25029,-0.125271 -3.074512,-0.155668 -6.147189,-0.376629 -9.206495,-0.741108 -2.987304,-0.39676 -2.678936,-0.330814 -5.5727079,-0.809694 -1.799556,-0.297803 -3.600996,-0.67893602 -5.417392,-0.85492802 -0.222534,-0.02156 -0.446708,-0.01485 -0.670061,-0.02228 0,0 -1.944263,1.49305702 -1.944263,1.49305702 z" />
    <path
       style="fill:#ff0000;fill-opacity:1;stroke:#ff0000;stroke-width:4.89731;stroke-linecap:round;stroke-linejoin:round;stroke-miterlimit:4;stroke-dasharray:none;stroke-dashoffset:10.6583;stroke-opacity:1;paint-order:markers stroke fill"
       id="path833-8-9"
       d="m 1.07461,46.327681 c 2.134212,-0.07967 4.260574,0.321471 6.367565,0.622576 3.52969,0.504419 2.0042306,0.297065 5.656777,0.753967 3.066172,0.323111 6.139812,0.566023 9.216194,0.7495 1.926771,0.114913 3.277112,0.190591 5.188617,0.184947 0.753567,-0.0022 1.50672,-0.03762 2.260079,-0.05642 3.866637,-0.234818 7.70439,-0.888278 11.477672,-1.796757 1.460389,-0.374774 2.866422,-0.929447 4.24499,-1.553311 0,0 1.807528,-1.512884 1.807528,-1.512884 v 0 c -1.403765,0.67005 -2.836481,1.269713 -4.331038,1.678894 -0.536458,0.137476 -1.070101,0.287856 -1.609374,0.412436 -3.268366,0.755025 -6.599582,1.217388 -9.932611,1.491072 -0.761731,0.02874 -1.523066,0.07378 -2.285191,0.08622 -2.024245,0.03302 -3.20095,-0.02151 -5.25029,-0.125271 C 20.811016,47.106982 17.738339,46.886021 14.679034,46.521542 11.69173,46.124782 12.000098,46.190728 9.106326,45.711848 7.30677,45.414045 5.50533,45.032912 3.688934,44.85692 3.4664,44.83536 3.242226,44.84207 3.018873,44.83464 c 0,0 -1.944263,1.493057 -1.944263,1.493057 z" />
    <path
       style="fill:#ff0000;fill-opacity:1;stroke:#ff0000;stroke-width:5.5;stroke-linecap:round;stroke-linejoin:round;stroke-miterlimit:4;stroke-dasharray:none;stroke-dashoffset:10.6583;stroke-opacity:1;paint-order:markers stroke fill"
       id="path1063"
       d="m 2.5997706,13.359221 c 1.7328142,-0.281263 3.4906262,-0.175497 5.2308056,-0.04293 3.3114598,0.327743 6.5699038,1.024115 9.8579278,1.51815 2.393654,0.309662 4.814535,0.324312 7.224593,0.354157 1.982671,-0.0069 3.96121,0.01031 5.939245,0.149664 1.652728,0.101764 3.30078,0.206712 4.943327,0.419514 1.05197,0.189287 2.77735,0.300876 3.459826,1.275679 0.08611,0.122994 0.126699,0.272245 0.190048,0.408368 0.123388,0.831809 -0.05129,1.663983 -0.177959,2.483977 -0.15989,1.035035 -0.105248,0.662282 -0.239416,1.739165 -0.178916,2.259034 -0.07264,4.532538 -0.02759,6.796178 -0.005,0.97882 0.0624,1.955572 0.117412,2.932205 0,0 2.394193,-1.242428 2.394193,-1.242428 v 0 c -0.08913,-0.956797 -0.174374,-1.914824 -0.200504,-2.875849 -0.08691,-2.253091 -0.232974,-4.524245 0.0652,-6.767689 0.154379,-1.07653 0.09397,-0.70839 0.2716,-1.745855 0.150569,-0.879411 0.352738,-1.772773 0.160012,-2.663032 -0.0817,-0.158913 -0.138697,-0.333191 -0.245104,-0.47674 -0.785368,-1.059522 -2.461078,-1.14077 -3.63355,-1.369366 -0.463925,-0.0707 -1.274603,-0.200749 -1.754634,-0.249976 -1.05963,-0.108664 -2.129743,-0.08819 -3.189986,-0.19162 C 30.986073,13.677964 28.988254,13.652311 26.98475,13.686325 24.573967,13.672335 22.157541,13.651345 19.759733,13.37199 16.43874,12.965811 13.151198,12.352242 9.8390983,11.886067 8.1765606,11.693605 6.5136179,11.541517 4.8393457,11.67487 c 0,0 -2.2395781,1.68435 -2.2395781,1.68435 z" />
    <path
       style="fill:#ff0000;fill-opacity:1;stroke:#ff0000;stroke-width:5.5;stroke-linecap:round;stroke-linejoin:round;stroke-miterlimit:4;stroke-dasharray:none;stroke-dashoffset:10.6583;stroke-opacity:1;paint-order:markers stroke fill"
       id="path1065"
       d="m 2.5290578,17.134039 c 0.069396,1.368683 0.055318,2.739313 0.1075486,4.108618 0.149714,1.429102 0.037901,2.904302 0.3799279,4.310419 0.063123,0.259506 0.1544072,0.511339 0.2316107,0.767009 0.3910222,1.11392 0.914695,2.161275 1.7565497,3.007778 0.740269,0.744358 1.2818859,1.078354 2.1430448,1.701022 1.5027751,1.032074 3.1071855,1.916621 4.8852465,2.367285 1.271316,0.322223 1.703299,0.304949 3.071266,0.436497 3.623567,0.193648 7.252703,0.276852 10.88018,0.367718 1.854108,0.04538 3.707458,0.147423 5.560925,0.05117 1.112835,-0.07534 0.573292,-0.03701 1.618684,-0.114369 0,0 2.133029,-1.57697 2.133029,-1.57697 v 0 c -1.061628,0.09798 -0.516319,0.05157 -1.636033,0.137978 -1.889331,0.09095 -3.783933,0.02558 -5.674929,0.05308 -3.63343,-0.03322 -7.271086,-0.07887 -10.896932,-0.328954 C 15.85864,32.279192 15.285222,32.255517 14.12042,31.971487 12.358376,31.541817 10.739933,30.724254 9.2546414,29.694343 8.4007948,29.047807 7.9443735,28.765147 7.2273362,27.995943 6.4430536,27.154599 5.9565317,26.120536 5.572276,25.050159 5.5001614,24.802573 5.4149214,24.558434 5.3559325,24.307394 5.0375168,22.952312 5.0793104,21.437086 4.9544268,20.05488 c -0.011782,-1.396137 -0.00552,-2.79358 0.062336,-4.188391 0,0 -2.4877051,1.26755 -2.487705,1.26755 z" />
  </g>
</svg>
