<?xml version="1.0" encoding="UTF-8" standalone="no"?>
<svg
   xmlns:dc="http://purl.org/dc/elements/1.1/"
   xmlns:cc="http://creativecommons.org/ns#"
   xmlns:rdf="http://www.w3.org/1999/02/22-rdf-syntax-ns#"
   xmlns:svg="http://www.w3.org/2000/svg"
   xmlns="http://www.w3.org/2000/svg"
   xmlns:sodipodi="http://sodipodi.sourceforge.net/DTD/sodipodi-0.dtd"
   xmlns:inkscape="http://www.inkscape.org/namespaces/inkscape"
   width="60mm"
   height="60mm"
   viewBox="0 0 60 59.999999"
   version="1.1"
   id="svg8"
   inkscape:version="1.0.2 (e86c870879, 2021-01-15)"
   sodipodi:docname="11.svg">
  <defs
     id="defs2" />
  <sodipodi:namedview
     id="base"
     pagecolor="#ffffff"
     bordercolor="#666666"
     borderopacity="1.0"
     inkscape:pageopacity="0.0"
     inkscape:pageshadow="2"
     inkscape:zoom="1.4"
     inkscape:cx="340.22858"
     inkscape:cy="161.14453"
     inkscape:document-units="mm"
     inkscape:current-layer="layer1"
     inkscape:document-rotation="0"
     showgrid="false"
     inkscape:window-width="1560"
     inkscape:window-height="1041"
     inkscape:window-x="2102"
     inkscape:window-y="0"
     inkscape:window-maximized="0"
     fit-margin-top="4.6"
     fit-margin-left="4.6"
     fit-margin-right="4.6"
     fit-margin-bottom="4.6"
     lock-margins="false" />
  <metadata
     id="metadata5">
    <rdf:RDF>
      <cc:Work
         rdf:about="">
        <dc:format>image/svg+xml</dc:format>
        <dc:type
           rdf:resource="http://purl.org/dc/dcmitype/StillImage" />
        <dc:title></dc:title>
      </cc:Work>
    </rdf:RDF>
  </metadata>
  <g
     inkscape:label="Warstwa 1"
     inkscape:groupmode="layer"
     id="layer1"
     transform="translate(5.4875062,5.7921927)">
    <path
       style="fill:#ff0000;fill-opacity:1;stroke:#ff0000;stroke-width:4.89731;stroke-linecap:round;stroke-linejoin:round;stroke-miterlimit:4;stroke-dasharray:none;stroke-dashoffset:10.6583;stroke-opacity:1;paint-order:markers stroke fill"
       id="path833-8"
       d="m 1.2635981,2.1044665 c 2.134212,-0.07967 4.260574,0.321471 6.367565,0.622576 3.5296899,0.504419 2.0042306,0.297065 5.6567769,0.753967 3.066173,0.323111 6.139813,0.566023 9.216195,0.7495 1.926771,0.114913 3.277112,0.190591 5.188617,0.184947 0.753567,-0.0022 1.50672,-0.03762 2.260079,-0.05642 3.866637,-0.234818 7.70439,-0.888278 11.477671,-1.796757 1.460389,-0.374774 2.866422,-0.929447 4.24499,-1.553311 0,0 1.807528,-1.51288402 1.807528,-1.51288402 v 0 c -1.403764,0.67005 -2.836481,1.269713 -4.331037,1.67889402 -0.536458,0.137476 -1.070101,0.287856 -1.609374,0.412436 -3.268366,0.755025 -6.599582,1.217388 -9.932611,1.491072 -0.761731,0.02874 -1.523066,0.07378 -2.285191,0.08622 -2.024245,0.03302 -3.20095,-0.02151 -5.25029,-0.125271 -3.074512,-0.155668 -6.147189,-0.376629 -9.206495,-0.741108 -2.987304,-0.39676 -2.678936,-0.330814 -5.5727079,-0.809694 -1.799556,-0.297803 -3.600996,-0.67893602 -5.417392,-0.85492802 -0.222534,-0.02156 -0.446708,-0.01485 -0.670061,-0.02228 0,0 -1.944263,1.49305702 -1.944263,1.49305702 z" />
    <path
       style="fill:#ff0000;fill-opacity:1;stroke:#ff0000;stroke-width:4.89731;stroke-linecap:round;stroke-linejoin:round;stroke-miterlimit:4;stroke-dasharray:none;stroke-dashoffset:10.6583;stroke-opacity:1;paint-order:markers stroke fill"
       id="path833-8-9"
       d="m 1.07461,46.327681 c 2.134212,-0.07967 4.260574,0.321471 6.367565,0.622576 3.52969,0.504419 2.0042306,0.297065 5.656777,0.753967 3.066172,0.323111 6.139812,0.566023 9.216194,0.7495 1.926771,0.114913 3.277112,0.190591 5.188617,0.184947 0.753567,-0.0022 1.50672,-0.03762 2.260079,-0.05642 3.866637,-0.234818 7.70439,-0.888278 11.477672,-1.796757 1.460389,-0.374774 2.866422,-0.929447 4.24499,-1.553311 0,0 1.807528,-1.512884 1.807528,-1.512884 v 0 c -1.403765,0.67005 -2.836481,1.269713 -4.331038,1.678894 -0.536458,0.137476 -1.070101,0.287856 -1.609374,0.412436 -3.268366,0.755025 -6.599582,1.217388 -9.932611,1.491072 -0.761731,0.02874 -1.523066,0.07378 -2.285191,0.08622 -2.024245,0.03302 -3.20095,-0.02151 -5.25029,-0.125271 C 20.811016,47.106982 17.738339,46.886021 14.679034,46.521542 11.69173,46.124782 12.000098,46.190728 9.106326,45.711848 7.30677,45.414045 5.50533,45.032912 3.688934,44.85692 3.4664,44.83536 3.242226,44.84207 3.018873,44.83464 c 0,0 -1.944263,1.493057 -1.944263,1.493057 z" />
    <path
       style="fill:#ff0000;fill-opacity:1;stroke:#ff0000;stroke-width:5.5;stroke-linecap:round;stroke-linejoin:round;stroke-miterlimit:4;stroke-dasharray:none;stroke-dashoffset:10.6583;stroke-opacity:1;paint-order:markers stroke fill"
       id="path1067"
       d="m 23.221095,12.280721 c 0.552614,1.221101 0.769501,2.548104 0.934262,3.867201 0.299328,2.382206 0.466503,4.775232 0.439589,7.175826 -0.07877,2.084334 -0.403905,4.146002 -0.808783,6.1885 -0.442606,1.690077 -0.92415,3.368461 -1.321737,5.070176 -0.191159,0.971066 -0.432512,1.952215 -0.423042,2.947726 0.03587,0.406384 0.179205,0.791583 0.295965,1.179391 0,0 2.399385,-1.310688 2.399385,-1.310688 v 0 c -0.106704,-0.368268 -0.226261,-0.737071 -0.237294,-1.12423 -0.01,-0.957617 0.176797,-1.906657 0.355647,-2.843379 0.378791,-1.694818 0.86055,-3.363283 1.265817,-5.051566 0.406197,-2.045485 0.715336,-4.118168 0.73778,-6.207741 5.29e-4,-2.422213 -0.168055,-4.834148 -0.369601,-7.247375 -0.14658,-1.355674 -0.412782,-2.686255 -0.829316,-3.986924 0,0 -2.438672,1.343083 -2.438672,1.343083 z" />
    <path
       style="fill:#ff0000;fill-opacity:1;stroke:#ff0000;stroke-width:5.5;stroke-linecap:round;stroke-linejoin:round;stroke-miterlimit:4;stroke-dasharray:none;stroke-dashoffset:10.6583;stroke-opacity:1;paint-order:markers stroke fill"
       id="path1071"
       d="m 3.5555475,24.323087 c 2.7690974,-0.100476 5.5400704,-0.127929 8.3104685,-0.171307 4.872342,-0.0614 9.744886,0.01564 14.617111,0.05328 1.526212,0.01908 3.05522,0.04691 4.57441,0.208997 1.213482,0.129472 2.421411,0.339979 3.628874,0.515263 1.529691,0.243737 3.069699,0.398042 4.616003,0.477086 0.864023,0.0305 1.723155,-0.06873 2.571432,-0.223887 0.280006,-0.0598 0.559168,-0.122923 0.837661,-0.189357 0,0 2.197576,-1.685489 2.197576,-1.685489 v 0 c -0.278204,0.08159 -0.55961,0.137041 -0.840444,0.20892 -0.842161,0.204105 -1.711584,0.300332 -2.577451,0.312674 -1.576663,-0.04365 -3.149749,-0.162787 -4.713232,-0.375592 -1.225437,-0.164853 -2.451383,-0.373792 -3.681863,-0.496596 -1.071144,-0.106902 -1.863415,-0.127304 -2.948098,-0.146246 -0.575479,-0.01005 -1.151096,-0.0093 -1.726645,-0.01397 -4.921115,0.03722 -9.842566,0.114075 -14.763783,0.05328 -2.613223,-0.04276 -5.2271627,-0.06778 -7.8389018,-0.171307 0,0 -2.2631177,1.64425 -2.2631177,1.64425 z" />
  </g>
</svg>
