<?xml version="1.0" encoding="UTF-8" standalone="no"?>
<svg
   xmlns:dc="http://purl.org/dc/elements/1.1/"
   xmlns:cc="http://creativecommons.org/ns#"
   xmlns:rdf="http://www.w3.org/1999/02/22-rdf-syntax-ns#"
   xmlns:svg="http://www.w3.org/2000/svg"
   xmlns="http://www.w3.org/2000/svg"
   xmlns:sodipodi="http://sodipodi.sourceforge.net/DTD/sodipodi-0.dtd"
   xmlns:inkscape="http://www.inkscape.org/namespaces/inkscape"
   width="60mm"
   height="60mm"
   viewBox="0 0 60 59.999999"
   version="1.1"
   id="svg8"
   inkscape:version="1.0.2 (e86c870879, 2021-01-15)"
   sodipodi:docname="5.svg">
  <defs
     id="defs2" />
  <sodipodi:namedview
     id="base"
     pagecolor="#ffffff"
     bordercolor="#666666"
     borderopacity="1.0"
     inkscape:pageopacity="0.0"
     inkscape:pageshadow="2"
     inkscape:zoom="1.4"
     inkscape:cx="340.22858"
     inkscape:cy="161.14453"
     inkscape:document-units="mm"
     inkscape:current-layer="layer1"
     inkscape:document-rotation="0"
     showgrid="false"
     inkscape:window-width="1560"
     inkscape:window-height="1041"
     inkscape:window-x="2102"
     inkscape:window-y="0"
     inkscape:window-maximized="0"
     fit-margin-top="4.6"
     fit-margin-left="4.6"
     fit-margin-right="4.6"
     fit-margin-bottom="4.6"
     lock-margins="false" />
  <metadata
     id="metadata5">
    <rdf:RDF>
      <cc:Work
         rdf:about="">
        <dc:format>image/svg+xml</dc:format>
        <dc:type
           rdf:resource="http://purl.org/dc/dcmitype/StillImage" />
        <dc:title></dc:title>
      </cc:Work>
    </rdf:RDF>
  </metadata>
  <g
     inkscape:label="Warstwa 1"
     inkscape:groupmode="layer"
     id="layer1"
     transform="translate(5.4875062,5.7921927)">
    <path
       style="fill:#ff0000;fill-opacity:1;stroke:#ff0000;stroke-width:4.89731;stroke-linecap:round;stroke-linejoin:round;stroke-miterlimit:4;stroke-dasharray:none;stroke-dashoffset:10.6583;stroke-opacity:1;paint-order:markers stroke fill"
       id="path833"
       d="m 1.9391082,4.9979737 c 2.1342122,-0.07967 4.2605734,0.3214706 6.3675645,0.6225758 3.5296903,0.5044184 2.0042313,0.2970653 5.6567773,0.7539674 3.066173,0.3231102 6.139813,0.5660224 9.216195,0.7494993 1.926771,0.114913 3.277112,0.1905907 5.188617,0.1849471 0.753567,-0.0022 1.50672,-0.037615 2.260079,-0.056418 3.866637,-0.2348179 7.70439,-0.8882775 11.477671,-1.7967568 1.460389,-0.3747743 2.866422,-0.9294472 4.24499,-1.553311 0,0 1.807528,-1.5128838 1.807528,-1.5128838 v 0 c -1.403764,0.67005 -2.836481,1.2697126 -4.331037,1.6788934 -0.536458,0.1374766 -1.070101,0.2878561 -1.609374,0.4124361 -3.268366,0.7550257 -6.599582,1.2173884 -9.932611,1.4910727 -0.761731,0.028735 -1.523066,0.073784 -2.285191,0.086215 -2.024245,0.03302 -3.20095,-0.021513 -5.25029,-0.1252702 C 21.675515,5.7772747 18.602838,5.5563137 15.543532,5.1918343 12.556228,4.7950741 12.864596,4.8610208 9.9708239,4.38214 8.1712677,4.0843378 6.3698282,3.7032048 4.5534321,3.5272124 4.3308982,3.5056541 4.1067239,3.5123642 3.8833706,3.5049309 c 0,0 -1.9442624,1.4930574 -1.9442624,1.4930574 z" />
    <path
       style="fill:#ff0000;fill-opacity:1;stroke:#ff0000;stroke-width:5.5;stroke-linecap:round;stroke-linejoin:round;stroke-miterlimit:4;stroke-dasharray:none;stroke-dashoffset:10.6583;stroke-opacity:1;paint-order:markers stroke fill"
       id="path946"
       d="m 24.635899,10.476672 c 0.04584,0.865644 0.03971,1.733371 0.039,2.599989 -0.06237,0.980389 0.08785,1.946741 0.203917,2.916318 0.101428,0.775524 0.134445,1.556472 0.151082,2.337586 0.01161,0.581151 0.0024,1.162427 -0.0038,1.743584 -0.0043,0.317933 7.94e-4,0.635872 0.0011,0.953817 0,0 2.471831,-1.259085 2.471831,-1.259085 v 0 c 0.0011,-0.318832 0.0071,-0.637634 0.0042,-0.956467 -0.0045,-0.579213 -0.01315,-1.15838 -0.02572,-1.737477 -0.02635,-0.785187 -0.06872,-1.571663 -0.188526,-2.348961 -0.130562,-0.956543 -0.234612,-1.914356 -0.194929,-2.881974 -7.94e-4,-0.879886 -0.0061,-1.760775 0.039,-2.6397372 0,0 -2.497238,1.2724072 -2.497238,1.2724072 z" />
    <path
       style="fill:#ff0000;fill-opacity:1;stroke:#ff0000;stroke-width:5.5;stroke-linecap:round;stroke-linejoin:round;stroke-miterlimit:4;stroke-dasharray:none;stroke-dashoffset:10.6583;stroke-opacity:1;paint-order:markers stroke fill"
       id="path948"
       d="m 12.791193,40.010673 c 1.747286,-0.05682 3.495741,-0.06967 5.243706,-0.09312 2.883695,-0.03499 5.767746,-0.0086 8.651265,0.02989 1.16077,0.0177 2.321621,0.03867 3.482539,0.04359 1.021831,-0.02006 2.043914,-0.01027 3.065774,0.0016 0.534808,0.0091 1.069663,0.0096 1.604521,0.01138 0.212354,7.94e-4 0.424706,0.0013 0.637061,0.0019 0,0 2.254149,-1.637736 2.254149,-1.637736 v 0 c -0.214132,5.29e-4 -0.428265,0.0011 -0.642397,0.0019 -0.545293,0.0019 -1.090578,0.0024 -1.635819,0.01138 -1.023241,0.0114 -2.046716,0.02188 -3.069918,0.0016 -1.200906,0.005 -2.401747,0.02619 -3.602519,0.04359 -2.910951,0.03751 -5.822431,0.06521 -8.733546,0.02989 -1.662514,-0.02315 -3.32562,-0.03477 -4.987369,-0.09312 0,0 -2.267447,1.647396 -2.267447,1.647396 z" />
    <path
       style="fill:#ff0000;fill-opacity:1;stroke:#ff0000;stroke-width:5.5;stroke-linecap:round;stroke-linejoin:round;stroke-miterlimit:4;stroke-dasharray:none;stroke-dashoffset:10.6583;stroke-opacity:1;paint-order:markers stroke fill"
       id="path952"
       d="m 24.262689,31.497133 c 0.06964,1.499634 0.09189,3.001007 0.08092,4.502047 -0.117406,2.362258 -0.179435,4.7284 -0.344387,7.088028 -0.07684,1.026094 -0.204065,2.047674 -0.27728,3.074012 -0.02778,0.486277 -0.02085,0.973878 -0.02294,1.460796 -0.0036,0.288478 -0.01164,0.573619 0.02786,0.859528 0,0 2.468722,-1.293548 2.468722,-1.293548 v 0 c -0.02405,-0.275495 -0.01805,-0.551331 -0.01995,-0.82777 -0.0016,-0.481179 0.0024,-0.962218 0.02,-1.443133 0.03298,-0.999876 0.08786,-1.99885 0.128068,-2.998441 0.09074,-2.35912 0.160454,-4.718886 0.300541,-7.075987 0.04772,-1.53756 0.06007,-3.076136 0.126137,-4.613079 0,0 -2.487705,1.267547 -2.487705,1.267547 z" />
  </g>
</svg>
