<?xml version="1.0" encoding="UTF-8" standalone="no"?>
<svg
   xmlns:dc="http://purl.org/dc/elements/1.1/"
   xmlns:cc="http://creativecommons.org/ns#"
   xmlns:rdf="http://www.w3.org/1999/02/22-rdf-syntax-ns#"
   xmlns:svg="http://www.w3.org/2000/svg"
   xmlns="http://www.w3.org/2000/svg"
   xmlns:sodipodi="http://sodipodi.sourceforge.net/DTD/sodipodi-0.dtd"
   xmlns:inkscape="http://www.inkscape.org/namespaces/inkscape"
   width="60mm"
   height="60mm"
   viewBox="0 0 60 59.999999"
   version="1.1"
   id="svg8"
   inkscape:version="1.0.2 (e86c870879, 2021-01-15)"
   sodipodi:docname="6.svg">
  <defs
     id="defs2" />
  <sodipodi:namedview
     id="base"
     pagecolor="#ffffff"
     bordercolor="#666666"
     borderopacity="1.0"
     inkscape:pageopacity="0.0"
     inkscape:pageshadow="2"
     inkscape:zoom="1.4"
     inkscape:cx="340.22858"
     inkscape:cy="161.14453"
     inkscape:document-units="mm"
     inkscape:current-layer="layer1"
     inkscape:document-rotation="0"
     showgrid="false"
     inkscape:window-width="1560"
     inkscape:window-height="1041"
     inkscape:window-x="2102"
     inkscape:window-y="0"
     inkscape:window-maximized="0"
     fit-margin-top="4.6"
     fit-margin-left="4.6"
     fit-margin-right="4.6"
     fit-margin-bottom="4.6"
     lock-margins="false" />
  <metadata
     id="metadata5">
    <rdf:RDF>
      <cc:Work
         rdf:about="">
        <dc:format>image/svg+xml</dc:format>
        <dc:type
           rdf:resource="http://purl.org/dc/dcmitype/StillImage" />
        <dc:title></dc:title>
      </cc:Work>
    </rdf:RDF>
  </metadata>
  <g
     inkscape:label="Warstwa 1"
     inkscape:groupmode="layer"
     id="layer1"
     transform="translate(5.4875062,5.7921927)">
    <path
       style="fill:#ff0000;fill-opacity:1;stroke:#ff0000;stroke-width:4.89731;stroke-linecap:round;stroke-linejoin:round;stroke-miterlimit:4;stroke-dasharray:none;stroke-dashoffset:10.6583;stroke-opacity:1;paint-order:markers stroke fill"
       id="path833-8"
       d="m 1.8305624,42.736907 c 2.134212,-0.07967 4.260574,0.321471 6.367565,0.622576 3.5296896,0.504419 2.0042306,0.297065 5.6567766,0.753967 3.066173,0.323111 6.139813,0.566023 9.216195,0.7495 1.926771,0.114913 3.277112,0.190591 5.188617,0.184947 0.753567,-0.0022 1.50672,-0.03762 2.260079,-0.05642 3.866637,-0.234818 7.70439,-0.888278 11.477671,-1.796757 1.460389,-0.374774 2.866422,-0.929447 4.24499,-1.553311 0,0 1.807528,-1.512884 1.807528,-1.512884 v 0 c -1.403764,0.67005 -2.836481,1.269713 -4.331037,1.678894 -0.536458,0.137476 -1.070101,0.287856 -1.609374,0.412436 -3.268366,0.755025 -6.599582,1.217388 -9.932611,1.491072 -0.761731,0.02874 -1.523066,0.07378 -2.285191,0.08622 -2.024245,0.03302 -3.20095,-0.02151 -5.25029,-0.125271 -3.074512,-0.155668 -6.147189,-0.376629 -9.206495,-0.741108 -2.987304,-0.39676 -2.678936,-0.330814 -5.5727076,-0.809694 -1.799556,-0.297803 -3.600996,-0.678936 -5.417392,-0.854928 -0.222534,-0.02156 -0.446708,-0.01485 -0.670061,-0.02228 0,0 -1.944263,1.493057 -1.944263,1.493057 z" />
    <path
       style="fill:#ff0000;fill-opacity:1;stroke:#ff0000;stroke-width:5.5;stroke-linecap:round;stroke-linejoin:round;stroke-miterlimit:4;stroke-dasharray:none;stroke-dashoffset:10.6583;stroke-opacity:1;paint-order:markers stroke fill"
       id="path974"
       d="m 22.213345,-0.44571528 c 0.163933,1.15487395 0.178204,2.32639148 0.195079,3.49097648 0.01111,1.398206 0.0231,2.7964429 0.02355,4.1946975 -0.0026,1.6051408 -7.93e-4,3.2101823 0.04018,4.8148573 0.05911,1.533509 0.09691,3.067551 0.123153,4.601928 0.143333,1.483039 0.269928,2.966315 0.343353,4.45459 0.07095,1.647414 0.06062,3.296456 0.07492,4.944874 0.0032,1.849274 0.0078,3.698534 0.01251,5.54781 -0.01378,1.583386 -0.02577,3.166644 -0.03178,4.750088 -0.0092,1.079042 -0.02008,2.158045 -0.02574,3.237108 -0.0039,0.734076 -0.01331,1.468091 -0.01328,2.202183 0.003,0.464616 0.0042,0.929145 7.94e-4,1.393764 0,0 2.454966,-1.250865 2.454966,-1.250865 v 0 c -0.0034,-0.464913 -0.0021,-0.929735 7.93e-4,-1.394643 1.9e-5,-0.72958 -0.0094,-1.459082 -0.01331,-2.188644 -0.0057,-1.070326 -0.01654,-2.14059 -0.02564,-3.210896 -0.0057,-1.572995 -0.01707,-3.145813 -0.02951,-4.718759 0.0063,-1.854075 0.01471,-3.708135 0.01413,-5.562213 0.0063,-1.654633 -0.01029,-3.309853 -0.06355,-4.963675 -0.06405,-1.489624 -0.2075,-2.971834 -0.320609,-4.458105 -0.03137,-1.528135 -0.106961,-3.054517 -0.166278,-4.581734 -0.04001,-1.6084146 0.01215,-3.2174982 -0.0034,-4.826394 -0.0013,-1.4003472 0.01082,-2.8009058 -0.02148,-4.2010345 -0.02641,-1.1937804 -0.03729,-2.38812198 -0.09516,-3.5809528 0,0 -2.473868,1.30503902 -2.473868,1.30503902 z" />
    <path
       style="fill:#ff0000;fill-opacity:1;stroke:#ff0000;stroke-width:5.5;stroke-linecap:round;stroke-linejoin:round;stroke-miterlimit:4;stroke-dasharray:none;stroke-dashoffset:10.6583;stroke-opacity:1;paint-order:markers stroke fill"
       id="path992"
       d="M 0.11572447,9.587233 C 1.6332025,9.7121253 3.1612231,9.674307 4.6825362,9.669045 8.4947663,9.640913 12.307107,9.609202 16.119032,9.677055 c 3.291343,0.147701 6.584443,0.234691 9.877949,0.3160157 2.111227,0.054101 4.222838,0.089997 6.33457,0.1166363 1.226926,-0.0019 2.453799,0.0058 3.680626,0.02092 0.616112,0.0077 1.232191,0.0096 1.848327,0.0098 0.55137,0.0023 1.102762,0.0021 1.654119,-0.002 0.69134,-0.01146 1.382808,-0.0032 2.074167,0.0023 0.42795,0.0037 0.855914,0.0052 1.28388,0.0059 0.06322,6.4e-5 0.126447,1.28e-4 0.189672,1.92e-4 0,0 2.257049,-1.6398427 2.257049,-1.6398427 v 0 c -0.0634,6.41e-5 -0.126802,1.281e-4 -0.190201,1.921e-4 -0.433385,7.144e-4 -0.866765,0.00225 -1.300136,0.00591 -0.693449,0.00539 -1.387012,0.013793 -2.08044,0.00228 -0.549571,-0.0042 -1.099182,-0.00434 -1.648764,-0.00193 -0.626105,3.704e-4 -1.252144,0.00297 -1.878214,0.0117 -1.246521,0.016909 -2.493108,0.02756 -3.739758,0.023029 -2.163673,0.017582 -4.327486,0.025897 -6.491166,0.00233 C 24.679901,8.503696 21.372433,8.3670263 18.06299,8.2684386 14.284628,8.2403033 10.505595,8.2824694 6.7277947,8.1862045 5.2886183,8.1517679 3.8405942,8.1488069 2.4097045,7.9777768 c 0,0 -2.29398003,1.6094726 -2.29398003,1.6094726 z" />
  </g>
</svg>
