<?xml version="1.0" encoding="UTF-8" standalone="no"?>
<svg
   xmlns:dc="http://purl.org/dc/elements/1.1/"
   xmlns:cc="http://creativecommons.org/ns#"
   xmlns:rdf="http://www.w3.org/1999/02/22-rdf-syntax-ns#"
   xmlns:svg="http://www.w3.org/2000/svg"
   xmlns="http://www.w3.org/2000/svg"
   xmlns:sodipodi="http://sodipodi.sourceforge.net/DTD/sodipodi-0.dtd"
   xmlns:inkscape="http://www.inkscape.org/namespaces/inkscape"
   width="60mm"
   height="60mm"
   viewBox="0 0 60 59.999999"
   version="1.1"
   id="svg8"
   inkscape:version="1.0.2 (e86c870879, 2021-01-15)"
   sodipodi:docname="7.svg">
  <defs
     id="defs2" />
  <sodipodi:namedview
     id="base"
     pagecolor="#ffffff"
     bordercolor="#666666"
     borderopacity="1.0"
     inkscape:pageopacity="0.0"
     inkscape:pageshadow="2"
     inkscape:zoom="1.4"
     inkscape:cx="340.22858"
     inkscape:cy="161.14453"
     inkscape:document-units="mm"
     inkscape:current-layer="layer1"
     inkscape:document-rotation="0"
     showgrid="false"
     inkscape:window-width="1560"
     inkscape:window-height="1041"
     inkscape:window-x="2102"
     inkscape:window-y="0"
     inkscape:window-maximized="0"
     fit-margin-top="4.6"
     fit-margin-left="4.6"
     fit-margin-right="4.6"
     fit-margin-bottom="4.6"
     lock-margins="false" />
  <metadata
     id="metadata5">
    <rdf:RDF>
      <cc:Work
         rdf:about="">
        <dc:format>image/svg+xml</dc:format>
        <dc:type
           rdf:resource="http://purl.org/dc/dcmitype/StillImage" />
        <dc:title></dc:title>
      </cc:Work>
    </rdf:RDF>
  </metadata>
  <g
     inkscape:label="Warstwa 1"
     inkscape:groupmode="layer"
     id="layer1"
     transform="translate(5.4875062,5.7921927)">
    <path
       style="fill:#ff0000;fill-opacity:1;stroke:#ff0000;stroke-width:4.89731;stroke-linecap:round;stroke-linejoin:round;stroke-miterlimit:4;stroke-dasharray:none;stroke-dashoffset:10.6583;stroke-opacity:1;paint-order:markers stroke fill"
       id="path833-8"
       d="m 1.8305624,42.736907 c 2.134212,-0.07967 4.260574,0.321471 6.367565,0.622576 3.5296896,0.504419 2.0042306,0.297065 5.6567766,0.753967 3.066173,0.323111 6.139813,0.566023 9.216195,0.7495 1.926771,0.114913 3.277112,0.190591 5.188617,0.184947 0.753567,-0.0022 1.50672,-0.03762 2.260079,-0.05642 3.866637,-0.234818 7.70439,-0.888278 11.477671,-1.796757 1.460389,-0.374774 2.866422,-0.929447 4.24499,-1.553311 0,0 1.807528,-1.512884 1.807528,-1.512884 v 0 c -1.403764,0.67005 -2.836481,1.269713 -4.331037,1.678894 -0.536458,0.137476 -1.070101,0.287856 -1.609374,0.412436 -3.268366,0.755025 -6.599582,1.217388 -9.932611,1.491072 -0.761731,0.02874 -1.523066,0.07378 -2.285191,0.08622 -2.024245,0.03302 -3.20095,-0.02151 -5.25029,-0.125271 -3.074512,-0.155668 -6.147189,-0.376629 -9.206495,-0.741108 -2.987304,-0.39676 -2.678936,-0.330814 -5.5727076,-0.809694 -1.799556,-0.297803 -3.600996,-0.678936 -5.417392,-0.854928 -0.222534,-0.02156 -0.446708,-0.01485 -0.670061,-0.02228 0,0 -1.944263,1.493057 -1.944263,1.493057 z" />
    <path
       style="fill:#ff0000;fill-opacity:1;stroke:#ff0000;stroke-width:5.5;stroke-linecap:round;stroke-linejoin:round;stroke-miterlimit:4;stroke-dasharray:none;stroke-dashoffset:10.6583;stroke-opacity:1;paint-order:markers stroke fill"
       id="path994"
       d="m 3.9582944,1.6429436 c 0.1266936,-0.00421 0.2533475,-0.01542 0.3800811,-0.012647 1.0568283,0.023111 2.1178837,0.1594716 3.171827,0.2289892 1.3201124,0.087074 2.0796179,0.1236311 3.4082065,0.1949043 2.534437,0.1195533 5.06934,0.2312342 7.605919,0.2929744 1.631018,0.028912 3.262379,0.00894 4.893551,0.00783 1.684348,0.00243 3.36864,-0.00811 5.052978,0.00212 1.300429,-0.029423 2.590181,0.023889 3.87995,0.1886638 1.087364,0.132964 2.142591,0.4295463 3.194857,0.7227938 0.920829,0.2445117 1.809464,0.5562753 2.626143,1.0491549 0.78658,0.5421789 1.274093,1.3204587 1.638218,2.1823958 0.233508,0.6938356 0.38028,1.4156285 0.524761,2.1326517 0.145717,0.9446696 0.302946,1.8876185 0.432705,2.8346875 0.131189,1.037176 0.370732,2.053252 0.584592,3.074978 0.181261,1.136874 0.416496,2.262031 0.66761,3.385174 0.202091,0.932174 0.413787,1.85953 0.523343,2.807916 0.07347,0.725146 0.07537,1.454394 0.06998,2.182371 -0.0058,0.458438 -0.01225,0.91686 -0.01545,1.375328 0.09137,0.548293 0.14229,1.100235 0.170389,1.655053 0.01344,0.401193 0.0081,0.20433 0.01619,0.590577 0,0 2.461911,-1.264264 2.461911,-1.264264 v 0 c -0.01648,-0.386657 -0.0073,-0.189423 -0.02774,-0.591696 -0.03226,-0.552942 -0.07763,-1.104199 -0.135988,-1.654677 -1.24e-4,-0.455237 -0.0011,-0.910495 -0.0092,-1.365674 -0.01426,-0.734742 -0.02233,-1.471772 -0.102936,-2.202818 -0.132493,-0.948583 -0.36957,-1.873264 -0.577286,-2.807278 -0.246634,-1.12312 -0.468033,-2.250745 -0.661681,-3.38425 -0.209942,-1.01999 -0.422712,-2.039106 -0.552966,-3.073345 C 43.031666,9.2441179 42.878737,8.2945939 42.75302,7.3407126 42.610978,6.6046976 42.463722,5.8619225 42.197509,5.1593659 41.806301,4.2568055 41.24798,3.446074 40.456368,2.8450738 40.134227,2.6379952 39.952212,2.504677 39.604552,2.344767 39.02212,2.0768725 38.38757,1.9275728 37.779094,1.734898 36.709278,1.4503764 35.648875,1.1106972 34.541835,0.99837365 33.227284,0.81151115 31.942306,0.73772706 30.613765,0.80010152 c -1.689251,0.0110014 -3.378481,0.002064 -5.067742,0.008363 -1.630109,0.002196 -3.260164,-0.007938 -4.890272,-0.00599 -2.589917,7.091e-5 -5.180703,-0.0265919 -7.76762,-0.16247453 C 11.317383,0.54692861 9.7503013,0.45130185 8.1880555,0.25676722 7.6443672,0.1890659 7.1066878,0.07673387 6.5623484,0.01448509 6.4479285,0.00140144 6.3321717,0.00605282 6.2170833,0.001838 c 0,0 -2.2587889,1.6411062 -2.2587889,1.6411056 z" />
    <path
       style="fill:#ff0000;fill-opacity:1;stroke:#ff0000;stroke-width:5.5;stroke-linecap:round;stroke-linejoin:round;stroke-miterlimit:4;stroke-dasharray:none;stroke-dashoffset:10.6583;stroke-opacity:1;paint-order:markers stroke fill"
       id="path996"
       d="m 1.6126314,2.9202001 c 0.2776262,1.177753 0.3109277,2.4003404 0.3585022,3.6048441 -0.010165,1.5480353 0.1368451,3.0863685 0.265308,4.6268528 0.2410836,2.062927 0.6090031,4.108818 0.9688793,6.153774 0.2731095,1.426265 0.5713677,2.847117 0.7584062,4.287958 0.090439,0.703678 0.095833,1.413563 0.1091287,2.12167 0.049677,0.873691 0.2026671,1.740194 0.4088619,2.589818 0.2317808,0.724988 0.4866828,1.481257 0.904448,2.125295 0.096756,0.149162 0.2121035,0.285404 0.3181551,0.428107 1.0356469,1.032795 2.45658,1.402537 3.8451009,1.692621 1.9058043,0.310388 3.8447303,0.308973 5.7704393,0.334018 2.154147,0.01103 4.308252,-0.0086 6.462419,-0.0061 2.511465,-0.02574 5.022234,0.05096 7.533487,0.01955 1.727035,0.0031 3.438001,-0.25428 5.153823,-0.415893 1.065657,-0.135904 2.132516,-0.241655 3.205555,-0.293185 0.727138,-0.01201 1.451371,-0.02743 2.175319,-0.09794 0,0 2.177031,-1.618929 2.177031,-1.618929 v 0 c -0.72372,0.09101 -1.447699,0.124319 -2.17738,0.12365 -1.081688,0.03244 -2.157283,0.112289 -3.22638,0.288065 -1.753499,0.187492 -3.499231,0.477107 -5.264631,0.523394 -2.498717,0.06863 -4.991955,-0.06787 -7.490738,-0.04491 -2.14811,0.01003 -4.296219,0.0073 -6.444326,-0.0031 C 15.519118,29.34407 13.60327,29.33685 11.716568,29.04244 10.395641,28.778106 9.0367981,28.438101 8.03781,27.474616 7.9387688,27.342197 7.8298988,27.216589 7.7406864,27.07736 7.3389584,26.450398 7.1111495,25.708905 6.8922359,25.004677 6.6957333,24.171811 6.5237928,23.330616 6.5111002,22.47108 6.5157039,21.751329 6.5140423,21.027812 6.3721659,20.318745 6.1096553,18.90121 5.7731971,17.49881 5.5013338,16.083066 5.1160118,14.047567 4.7327123,12.005219 4.5783779,9.9366034 4.4771063,8.3953608 4.3206399,6.8582515 4.3297331,5.3113799 4.2795467,4.0714072 4.2307406,2.8301266 4.088521,1.5964767 c 0,0 -2.4758896,1.3237234 -2.4758896,1.3237234 z" />
  </g>
</svg>
