<?xml version="1.0" encoding="UTF-8" standalone="no"?>
<svg
   xmlns:dc="http://purl.org/dc/elements/1.1/"
   xmlns:cc="http://creativecommons.org/ns#"
   xmlns:rdf="http://www.w3.org/1999/02/22-rdf-syntax-ns#"
   xmlns:svg="http://www.w3.org/2000/svg"
   xmlns="http://www.w3.org/2000/svg"
   xmlns:sodipodi="http://sodipodi.sourceforge.net/DTD/sodipodi-0.dtd"
   xmlns:inkscape="http://www.inkscape.org/namespaces/inkscape"
   width="60mm"
   height="60mm"
   viewBox="0 0 60 59.999999"
   version="1.1"
   id="svg8"
   inkscape:version="1.0.2 (e86c870879, 2021-01-15)"
   sodipodi:docname="8.svg">
  <defs
     id="defs2" />
  <sodipodi:namedview
     id="base"
     pagecolor="#ffffff"
     bordercolor="#666666"
     borderopacity="1.0"
     inkscape:pageopacity="0.0"
     inkscape:pageshadow="2"
     inkscape:zoom="1.4"
     inkscape:cx="340.22858"
     inkscape:cy="161.14453"
     inkscape:document-units="mm"
     inkscape:current-layer="layer1"
     inkscape:document-rotation="0"
     showgrid="false"
     inkscape:window-width="1560"
     inkscape:window-height="1041"
     inkscape:window-x="2102"
     inkscape:window-y="0"
     inkscape:window-maximized="0"
     fit-margin-top="4.6"
     fit-margin-left="4.6"
     fit-margin-right="4.6"
     fit-margin-bottom="4.6"
     lock-margins="false" />
  <metadata
     id="metadata5">
    <rdf:RDF>
      <cc:Work
         rdf:about="">
        <dc:format>image/svg+xml</dc:format>
        <dc:type
           rdf:resource="http://purl.org/dc/dcmitype/StillImage" />
        <dc:title></dc:title>
      </cc:Work>
    </rdf:RDF>
  </metadata>
  <g
     inkscape:label="Warstwa 1"
     inkscape:groupmode="layer"
     id="layer1"
     transform="translate(5.4875062,5.7921927)">
    <path
       style="fill:#ff0000;fill-opacity:1;stroke:#ff0000;stroke-width:5.5;stroke-linecap:round;stroke-linejoin:round;stroke-miterlimit:4;stroke-dasharray:none;stroke-dashoffset:10.6583;stroke-opacity:1;paint-order:markers stroke fill"
       id="path1013"
       d="m -1.8176682,0.50308636 c 0.061242,0.96111694 0.2941854,1.88384544 0.5752499,2.80088494 0.2062949,0.8139202 0.50695941,1.5982603 0.74576941,2.4018195 0.19570753,0.8104552 0.46612413,1.6037332 0.73174754,2.3939788 0.20163948,0.6199679 0.4304903,1.2266623 0.53611541,1.8718424 0.0792086,0.488512 0.0341064,0.985493 0.0967846,1.474273 0.19786784,0.905298 0.38997384,1.026227 1.24875314,1.403339 1.4671315,0.521057 2.9887039,0.881034 4.5254544,1.121027 1.7608603,0.210907 3.5355898,0.22931 5.3047248,0.314497 2.394263,0.125889 4.792987,0.05704 7.188477,0.01192 2.486648,-0.03826 4.973658,-0.04678 7.460532,-0.03282 1.616345,-0.03606 3.225353,0.09644 4.834668,0.224592 1.997969,0.140347 3.997901,0.251168 5.999686,0.317952 0.952764,0.0617 1.904717,-0.0141 2.855208,-0.0719 0.520155,-0.04819 1.045737,-0.01354 1.563471,-0.08513 0.477832,-0.08303 0.910984,-0.305815 1.363152,-0.468876 0.328033,-0.09891 0.165182,-0.05463 0.488344,-0.133583 0,0 2.209829,-1.679423 2.209829,-1.679423 v 0 c -0.338161,0.06575 -0.167862,0.02808 -0.510749,0.113696 -0.452763,0.138694 -0.870987,0.349763 -1.323152,0.488761 -0.519136,0.114671 -1.045432,0.09916 -1.575141,0.131923 -0.973323,0.07129 -1.946527,0.18428 -2.924022,0.152555 -2.015133,-0.02998 -4.031263,-0.0882 -6.039387,-0.268929 -1.603684,-0.154482 -3.20571,-0.371716 -4.821018,-0.264641 -2.529718,0.04574 -5.059455,0.0918 -7.589377,0.1246 -2.34175,0.0159 -4.684703,0.05132 -7.022737,-0.11379 -1.769298,-0.0726 -3.546536,-0.04171 -5.3058437,-0.27821 C 7.2956136,12.222317 5.797439,11.890074 4.3716886,11.352929 3.6404168,11.011411 3.4740418,10.96239 3.3312186,10.158444 3.2926572,9.6636436 3.3007138,9.164522 3.2141802,8.673827 3.0956,8.0178017 2.8413942,7.4081027 2.6287279,6.7784494 2.3516005,5.9922872 2.1056343,5.1934897 1.9203286,4.3803603 1.6595354,3.5882674 1.3536792,2.811601 1.1271085,2.0079043 0.8589618,1.1029558 0.63403819,0.18814912 0.67003686,-0.76446279 c 0,0 -2.48770506,1.26754915 -2.48770506,1.26754915 z" />
    <path
       style="fill:#ff0000;fill-opacity:1;stroke:#ff0000;stroke-width:5.5;stroke-linecap:round;stroke-linejoin:round;stroke-miterlimit:4;stroke-dasharray:none;stroke-dashoffset:10.6583;stroke-opacity:1;paint-order:markers stroke fill"
       id="path1015"
       d="m -0.19944375,-0.62491334 c 2.45301815,-0.14071494 4.90358185,-0.0603956 7.35114195,0.12371388 2.2248431,0.19520481 4.4265968,0.57795423 6.6441498,0.83425928 1.258199,0.1454232 1.581451,0.16328602 2.826425,0.26834756 2.251725,0.17518803 4.510238,0.21750972 6.767711,0.23433881 1.675294,0.003479 3.350532,0.0258022 5.02581,0.0123507 2.433103,-0.0561964 4.865362,-0.0518721 7.295634,0.0786754 1.533991,0.14818171 3.084857,0.22868601 4.600369,0.52795751 0.604888,0.1194488 0.785095,0.1926635 1.349314,0.3719065 0.985464,0.3849222 1.430144,0.8657214 1.865336,1.8023639 0.360561,0.9360537 0.394981,1.9480194 0.424691,2.9386887 -0.01593,1.0672169 0.02716,2.1255048 0.152556,3.1850906 0.08692,0.5553905 0.224166,1.1003665 0.343659,1.6490845 0,0 2.411241,-1.295825 2.411241,-1.295825 v 0 C 46.73642,9.5680769 46.616085,9.0295368 46.510659,8.4880004 46.369382,7.4388812 46.36454,6.3888264 46.355661,5.3315064 46.311843,4.3035153 46.298325,3.2531213 45.902998,2.2856438 45.439895,1.2759576 44.936399,0.72549511 43.874766,0.31742665 43.274484,0.13736182 43.091245,0.06496309 42.447593,-0.04860957 c -1.552234,-0.27389296 -3.13635,-0.31760292 -4.700683,-0.48462141 -0.97418,-0.0665853 -1.696865,-0.12751885 -2.667209,-0.1502193 -1.506884,-0.0352523 -3.015811,0.0332399 -4.522623,-0.0247465 -1.68941,-0.007972 -3.378634,0.0269348 -5.068075,0.0206163 -2.276499,-0.007183 -4.554587,-0.0216244 -6.827254,-0.16845359 C 15.47024,-1.0889803 12.30321,-1.5207602 9.1283656,-1.9128957 6.7751287,-2.1199229 4.4207887,-2.2192737 2.0593451,-2.2660198 c 0,0 -2.25878885,1.64110646 -2.25878885,1.64110646 z" />
    <path
       style="fill:#ff0000;fill-opacity:1;stroke:#ff0000;stroke-width:5.5;stroke-linecap:round;stroke-linejoin:round;stroke-miterlimit:4;stroke-dasharray:none;stroke-dashoffset:10.6583;stroke-opacity:1;paint-order:markers stroke fill"
       id="path1017"
       d="m 2.2217945,25.076482 c 1.2603118,-0.182993 2.541982,-0.186457 3.8129236,-0.227012 2.4141369,-0.06114 4.8291869,-0.03459 7.2436809,-0.01765 1.795497,0.03798 3.589699,0.02098 5.383675,-0.05923 2.055312,-0.04264 4.096564,-0.263457 6.140676,-0.458335 1.353899,-0.119288 2.712561,-0.192297 4.071789,-0.187701 1.245423,-5.29e-4 2.4739,0.204187 3.691105,0.447085 0.885616,0.178051 1.754256,0.423645 2.6144,0.69673 0.790096,0.242332 1.57874,0.496321 2.341116,0.81653 0.610944,0.24247 1.07801,0.6627 1.538988,1.11523 0.698738,0.682805 1.029925,1.615083 1.411523,2.493018 0.59132,1.419643 1.050285,2.88722 1.430899,4.375737 0.247872,0.910312 0.452837,1.83374 0.587724,2.767677 0.119406,0.806148 0.119592,1.615498 0.07918,2.426795 -0.119793,1.084778 -0.20674,2.172713 -0.273603,3.261929 -0.04723,0.868124 -0.05223,1.738444 -0.06071,2.607765 -0.0088,0.652801 -0.0026,1.305644 -0.0072,1.95848 -0.03263,0.321326 -0.08658,0.639852 -0.12936,0.959892 0,0 2.495656,-1.231397 2.495656,-1.231397 v 0 c 0.04092,-0.326961 0.08959,-0.653859 0.09682,-0.983874 -0.0061,-0.649523 -0.0027,-1.299057 -0.0094,-1.948577 -0.0024,-0.860954 8.2e-5,-1.721689 0.04064,-2.58196 0.05238,-1.091798 0.149432,-2.179003 0.277926,-3.264496 0.04729,-0.829783 0.05997,-1.660697 -0.09445,-2.481852 -0.151342,-0.938162 -0.352904,-1.867035 -0.644546,-2.772791 -0.433756,-1.482222 -0.908926,-2.951313 -1.471735,-4.390334 -0.360349,-0.932559 -0.648668,-1.919436 -1.383294,-2.635936 -0.242784,-0.240516 -0.482357,-0.514519 -0.752814,-0.724413 -0.255632,-0.198387 -0.566002,-0.323143 -0.847286,-0.477417 -0.771419,-0.316611 -1.566158,-0.57853 -2.359342,-0.834945 -0.880298,-0.266542 -1.761977,-0.528709 -2.66931,-0.691362 -1.228458,-0.259008 -2.473542,-0.457007 -3.731673,-0.478964 -1.381691,-0.04607 -2.759694,0.07796 -4.135617,0.196738 -2.063755,0.202457 -4.122446,0.470226 -6.1984,0.520177 -1.775563,0.04863 -3.551189,-0.01204 -5.327333,0.02951 -2.420674,0.01894 -4.841444,0.05001 -7.2622165,0.02738 -1.2208263,-0.01048 -2.4415358,-0.0074 -3.6608633,0.06323 0,0 -2.239578,1.684351 -2.239578,1.684351 z" />
    <path
       style="fill:#ff0000;fill-opacity:1;stroke:#ff0000;stroke-width:5.5;stroke-linecap:round;stroke-linejoin:round;stroke-miterlimit:4;stroke-dasharray:none;stroke-dashoffset:10.6583;stroke-opacity:1;paint-order:markers stroke fill"
       id="path1019"
       d="m 0.95738336,25.796549 c -0.15585149,1.063183 -0.19493177,2.139399 -0.22357371,3.212174 -0.078536,1.655228 -0.11233309,3.313067 -0.21621274,4.966919 -0.0487627,1.049915 -0.23108258,2.085462 -0.32974279,3.130241 -0.0545245,1.02749 -0.13778548,2.053264 -0.19146282,3.080781 -0.01788583,0.67441 -0.09722432,1.352556 -0.06929781,2.028018 0.01807369,0.437179 0.0726876534,0.714222 0.13861838,1.148004 0.06730762,0.222049 0.1079164,0.454017 0.20192259,0.666146 0.55779907,1.258695 1.66696464,2.422443 2.70155614,3.304075 0.2739673,0.233463 0.5700662,0.439631 0.8550992,0.659447 0.7857606,0.563973 1.6348109,1.023668 2.5749075,1.27172 1.1104774,0.293008 2.2565156,0.329454 3.3958447,0.387345 1.797815,0.02903 3.580613,-0.182637 5.350798,-0.471062 1.89026,-0.329329 3.806806,-0.429572 5.720824,-0.497834 1.711435,-0.0097 3.419342,-0.03547 5.128661,-0.121995 1.694733,-0.07627 3.391342,-0.06348 5.087215,-0.07577 1.289209,-0.01879 2.578436,-0.0089 3.867634,0.0028 0.804357,0.01622 1.605638,0.104373 2.405986,0.181001 0,0 2.184532,-1.556173 2.184532,-1.556173 v 0 c -0.798599,-0.07323 -1.594416,-0.180869 -2.395553,-0.219466 -1.299027,0.01077 -2.598026,0.01987 -3.897111,0.01577 -1.715344,0.01595 -3.429506,0.0894 -5.144834,0.109519 -1.716907,0.02736 -3.431791,0.136813 -5.149704,0.138456 -1.906762,0.04754 -3.816288,0.129919 -5.701572,0.441513 -1.780928,0.283774 -3.57069,0.546187 -5.378556,0.557943 C 9.6353602,48.06194 7.9058044,47.925894 6.0064696,46.612997 5.722055,46.40323 5.425179,46.209383 5.1532257,45.983691 4.1150735,45.122144 3.1030512,44.031121 2.6158734,42.750551 2.5368823,42.542919 2.5059803,42.320055 2.451034,42.104809 2.3151443,41.062909 2.352099,40.022083 2.40937,38.974386 c 0.063201,-1.029393 0.1532702,-2.056418 0.2245106,-3.085145 0.103151,-1.033867 0.2350722,-2.065226 0.2548742,-3.105652 0.075494,-1.659356 0.096956,-3.321418 0.2285441,-4.978138 0.051543,-1.075466 0.084825,-2.167308 0.3569044,-3.214569 0,0 -2.51681954,1.205664 -2.51681954,1.205664 z" />
  </g>
</svg>
