<?xml version="1.0" encoding="UTF-8" standalone="no"?>
<svg
   xmlns:dc="http://purl.org/dc/elements/1.1/"
   xmlns:cc="http://creativecommons.org/ns#"
   xmlns:rdf="http://www.w3.org/1999/02/22-rdf-syntax-ns#"
   xmlns:svg="http://www.w3.org/2000/svg"
   xmlns="http://www.w3.org/2000/svg"
   xmlns:sodipodi="http://sodipodi.sourceforge.net/DTD/sodipodi-0.dtd"
   xmlns:inkscape="http://www.inkscape.org/namespaces/inkscape"
   width="60mm"
   height="60mm"
   viewBox="0 0 60 59.999999"
   version="1.1"
   id="svg8"
   inkscape:version="1.0.2 (e86c870879, 2021-01-15)"
   sodipodi:docname="9.svg">
  <defs
     id="defs2" />
  <sodipodi:namedview
     id="base"
     pagecolor="#ffffff"
     bordercolor="#666666"
     borderopacity="1.0"
     inkscape:pageopacity="0.0"
     inkscape:pageshadow="2"
     inkscape:zoom="1.4"
     inkscape:cx="340.22858"
     inkscape:cy="161.14453"
     inkscape:document-units="mm"
     inkscape:current-layer="layer1"
     inkscape:document-rotation="0"
     showgrid="false"
     inkscape:window-width="1560"
     inkscape:window-height="1041"
     inkscape:window-x="2102"
     inkscape:window-y="0"
     inkscape:window-maximized="0"
     fit-margin-top="4.6"
     fit-margin-left="4.6"
     fit-margin-right="4.6"
     fit-margin-bottom="4.6"
     lock-margins="false" />
  <metadata
     id="metadata5">
    <rdf:RDF>
      <cc:Work
         rdf:about="">
        <dc:format>image/svg+xml</dc:format>
        <dc:type
           rdf:resource="http://purl.org/dc/dcmitype/StillImage" />
        <dc:title></dc:title>
      </cc:Work>
    </rdf:RDF>
  </metadata>
  <g
     inkscape:label="Warstwa 1"
     inkscape:groupmode="layer"
     id="layer1"
     transform="translate(5.4875062,5.7921927)">
    <path
       style="fill:#ff0000;fill-opacity:1;stroke:#ff0000;stroke-width:4.89731;stroke-linecap:round;stroke-linejoin:round;stroke-miterlimit:4;stroke-dasharray:none;stroke-dashoffset:10.6583;stroke-opacity:1;paint-order:markers stroke fill"
       id="path833-8"
       d="m 1.2635981,2.1044665 c 2.134212,-0.07967 4.260574,0.321471 6.367565,0.622576 3.5296899,0.504419 2.0042306,0.297065 5.6567769,0.753967 3.066173,0.323111 6.139813,0.566023 9.216195,0.7495 1.926771,0.114913 3.277112,0.190591 5.188617,0.184947 0.753567,-0.0022 1.50672,-0.03762 2.260079,-0.05642 3.866637,-0.234818 7.70439,-0.888278 11.477671,-1.796757 1.460389,-0.374774 2.866422,-0.929447 4.24499,-1.553311 0,0 1.807528,-1.51288402 1.807528,-1.51288402 v 0 c -1.403764,0.67005 -2.836481,1.269713 -4.331037,1.67889402 -0.536458,0.137476 -1.070101,0.287856 -1.609374,0.412436 -3.268366,0.755025 -6.599582,1.217388 -9.932611,1.491072 -0.761731,0.02874 -1.523066,0.07378 -2.285191,0.08622 -2.024245,0.03302 -3.20095,-0.02151 -5.25029,-0.125271 -3.074512,-0.155668 -6.147189,-0.376629 -9.206495,-0.741108 -2.987304,-0.39676 -2.678936,-0.330814 -5.5727079,-0.809694 -1.799556,-0.297803 -3.600996,-0.67893602 -5.417392,-0.85492802 -0.222534,-0.02156 -0.446708,-0.01485 -0.670061,-0.02228 0,0 -1.944263,1.49305702 -1.944263,1.49305702 z" />
    <path
       style="fill:#ff0000;fill-opacity:1;stroke:#ff0000;stroke-width:5.5;stroke-linecap:round;stroke-linejoin:round;stroke-miterlimit:4;stroke-dasharray:none;stroke-dashoffset:10.6583;stroke-opacity:1;paint-order:markers stroke fill"
       id="path1021"
       d="m 21.99483,3.7158839 c 0.07834,1.3814999 0.06683,2.7673625 0.0675,4.1507828 -0.0549,2.1323122 0.148288,4.2544853 0.312214,6.3771963 0.18978,2.411983 0.524433,4.808005 0.785735,7.212358 0.135578,1.51449 0.226066,3.033572 0.302848,4.552225 0.03744,0.899501 0.05561,1.79987 0.05765,2.700136 0.0074,0.644192 7.94e-4,1.288425 0.0019,1.932641 0.0039,0.94049 0.01953,1.880838 0.03523,2.821194 0.02236,1.304348 0.0055,2.608902 -0.02093,3.913036 -0.01307,0.854263 -0.0016,1.70864 -0.0027,2.562971 1.27e-4,0.687039 -0.01894,1.374035 -0.01484,2.061049 -0.0011,0.645747 0.0034,1.291492 0.0055,1.937237 0.0092,0.703212 -0.0026,1.406443 -0.0046,2.109652 1.45e-4,0.104386 2.64e-4,0.20877 5.29e-4,0.313156 0,0 2.459757,-1.25331 2.459757,-1.25331 v 0 c 1.46e-4,-0.104529 2.65e-4,-0.209061 5.29e-4,-0.313592 -0.0019,-0.701649 -0.01381,-1.403316 -0.0046,-2.10497 0.0021,-0.647607 0.0065,-1.295217 0.0055,-1.94283 0.004,-0.681974 -0.0149,-1.363924 -0.01484,-2.045919 -0.0011,-0.853411 0.0104,-1.706873 -0.0027,-2.560215 -0.02681,-1.297056 -0.04309,-2.594538 -0.02064,-3.891811 0.0159,-0.952686 0.03171,-1.90536 0.03788,-2.858164 0.0024,-0.645145 -7.94e-4,-1.290268 -0.006,-1.935396 -0.02434,-0.89095 -0.0749,-1.780249 -0.143915,-2.668936 -0.09917,-1.51728 -0.158972,-3.03914 -0.348139,-4.548597 -0.338926,-2.377551 -0.749091,-4.746992 -0.874083,-7.149775 -0.126145,-2.137611 -0.258072,-4.2755028 -0.194252,-6.4181002 7.94e-4,-1.4063929 -0.0095,-2.8149769 0.0675,-4.2195678 0,0 -2.487705,1.2675489 -2.487705,1.2675489 z" />
    <path
       style="fill:#ff0000;fill-opacity:1;stroke:#ff0000;stroke-width:5.5;stroke-linecap:round;stroke-linejoin:round;stroke-miterlimit:4;stroke-dasharray:none;stroke-dashoffset:10.6583;stroke-opacity:1;paint-order:markers stroke fill"
       id="path1029"
       d="m -1.2530879,19.380504 c 0.032512,1.282303 0.1231072,2.560412 0.2183948,3.83927 0.15625444,1.477325 0.28191009,2.957047 0.35257156,4.440936 0.007136,1.265854 0.17986216,2.520299 0.35765184,3.770776 0.16894916,1.149672 0.20839218,2.311736 0.23092886,3.47177 0.0036777,0.909944 0.0048604,1.819896 0.01679046,2.72978 0.03731604,1.460211 0.03283453,2.92091 0.0072946,4.381227 0.01973527,0.862616 0.15204176,1.772719 0.53198633,2.560053 0.0659125,0.136586 0.15485533,0.260808 0.23228326,0.39121 0.2548001,0.270574 0.33292309,0.395613 0.65999489,0.579239 0.7360081,0.413216 1.6569713,0.485953 2.472932,0.596265 2.4745114,0.197575 4.9613,0.190556 7.4423363,0.21445 2.875003,-0.003 5.750046,-0.0043 8.625075,-0.0066 3.606236,-0.0099 7.21225,-0.05227 10.8185,-0.03588 2.323255,0.01148 4.646382,0.03972 6.969169,0.08735 1.028319,0.01542 2.056813,0.0092 3.085211,0.01 0.686396,-0.0095 1.374135,0.04612 2.058422,-0.0214 0.526558,-0.0569 1.040439,-0.186796 1.564383,-0.260705 0.48592,-0.06923 0.971314,-0.08342 1.454584,0.0051 0.07839,0.01855 0.156787,0.0371 0.23518,0.05565 0,0 2.28577,-1.577429 2.28577,-1.577429 v 0 c -0.07906,-0.02043 -0.158128,-0.04084 -0.237191,-0.06125 -0.498102,-0.131564 -1.003705,-0.146262 -1.514689,-0.08077 -0.527183,0.05915 -1.038855,0.185608 -1.562735,0.259112 -0.691767,0.108323 -1.388767,0.07958 -2.087732,0.08622 -1.037514,7.93e-4 -2.075117,-0.0054 -3.112556,0.0099 -2.403229,0.04661 -4.806751,0.07575 -7.210412,0.08789 -3.576603,0.01685 -7.152983,-0.02402 -10.729594,-0.02892 -2.865087,0.0021 -5.73014,0.01212 -8.59518,-0.01267 -2.443118,-0.01082 -4.8934199,-0.0054 -7.3264295,-0.255672 C 5.2250304,44.505932 3.9708899,44.364737 3.3368852,43.865566 3.2351849,43.785493 3.1514271,43.684946 3.0586981,43.594635 2.5387236,42.747834 2.3411087,41.782359 2.3244508,40.794603 2.2995826,39.330878 2.2977998,37.866795 2.3372248,36.403252 2.3503508,35.490604 2.3588598,34.577321 2.3196274,33.665135 2.276935,32.498791 2.2171138,31.329806 2.0605993,30.172596 1.8771023,28.932824 1.7028509,27.690148 1.6969088,26.433745 1.6217965,24.953332 1.448051,23.483199 1.2997809,22.00879 1.2071749,20.710466 1.1399382,19.411081 1.2393853,18.110499 c 0,0 -2.4924726,1.269979 -2.4924726,1.269979 z" />
    <path
       style="fill:#ff0000;fill-opacity:1;stroke:#ff0000;stroke-width:5.5;stroke-linecap:round;stroke-linejoin:round;stroke-miterlimit:4;stroke-dasharray:none;stroke-dashoffset:10.6583;stroke-opacity:1;paint-order:markers stroke fill"
       id="path1031"
       d="m -1.686578,16.193454 c 2.5334748,-0.08478 5.0689136,-0.101364 7.6035616,-0.122989 3.7699222,-0.03202 7.5399274,0.0017 11.3097314,0.0323 2.40652,0.01221 4.81305,0.0231 7.219581,0.03291 1.804598,-0.02982 3.602082,0.140485 5.4006,0.25791 1.338583,0.09568 2.678991,0.133427 4.020529,0.141717 1.008991,-0.04873 2.001356,0.06199 2.996272,0.206457 0.763775,0.117407 1.535276,0.159817 2.306682,0.185268 1.014735,-0.03424 2.006648,0.171845 2.995827,0.366665 0.931883,0.183099 1.883002,0.354569 2.690074,0.879717 0.07092,0.07224 0.15199,0.135761 0.21277,0.216722 0.415372,0.553282 0.385109,1.736567 0.414946,2.393537 0.03365,1.541999 0.03213,3.084724 0.02148,4.627009 -0.0067,1.529668 -0.01402,3.059338 -0.01855,4.589016 -0.02788,1.451041 0.0065,2.900463 0.115525,4.347501 0.11003,1.295849 0.268618,2.586021 0.36209,3.883556 0.03009,1.258168 0.14102,2.509105 0.27508,3.759753 0.05909,0.572471 0.03275,0.296016 0.0799,0.829281 0,0 2.431177,-1.271603 2.431177,-1.271603 v 0 c -0.06649,-0.52777 -0.03101,-0.254199 -0.1069,-0.820653 -0.178353,-1.240383 -0.276542,-2.48313 -0.287157,-3.737113 -0.09101,-1.292934 -0.293376,-2.573969 -0.396587,-3.865935 -0.09932,-1.443419 -0.112495,-2.887565 -0.09932,-4.334052 -0.0019,-1.526381 -0.0049,-3.052731 7.94e-4,-4.579115 0.0013,-1.550654 0.03147,-3.101356 0.0021,-4.651892 -0.02384,-0.735265 0.02207,-1.579511 -0.258199,-2.27732 -0.123611,-0.307761 -0.213837,-0.358799 -0.435407,-0.590793 -0.849587,-0.574899 -1.801405,-0.743704 -2.792198,-0.93934 -0.983686,-0.196522 -1.967838,-0.4507 -2.97861,-0.435333 -0.76853,-0.01578 -1.53775,-0.04449 -2.300052,-0.151041 -0.431623,-0.06107 -0.865807,-0.145045 -1.300446,-0.180705 -0.414274,-0.03399 -0.69093,-0.01975 -1.112136,-0.01928 -0.217495,2.43e-4 -0.434988,-0.0011 -0.652484,-0.0017 -1.348658,-0.01555 -2.697768,-0.03608 -4.044857,-0.106959 -1.814584,-0.104621 -3.628186,-0.287907 -5.447726,-0.243677 -2.436728,0.0098 -4.873453,0.02072 -7.310171,0.03291 -3.799447,0.03021 -7.599097,0.06428 -11.3986563,0.0323 -2.4217749,-0.02116 -4.8445398,-0.03553 -7.26500103,-0.122989 0,0 -2.25446027,1.637961 -2.25446027,1.637961 z" />
  </g>
</svg>
