<?xml version="1.0" encoding="UTF-8" standalone="no"?>
<svg
   xmlns:dc="http://purl.org/dc/elements/1.1/"
   xmlns:cc="http://creativecommons.org/ns#"
   xmlns:rdf="http://www.w3.org/1999/02/22-rdf-syntax-ns#"
   xmlns:svg="http://www.w3.org/2000/svg"
   xmlns="http://www.w3.org/2000/svg"
   xmlns:sodipodi="http://sodipodi.sourceforge.net/DTD/sodipodi-0.dtd"
   xmlns:inkscape="http://www.inkscape.org/namespaces/inkscape"
   width="193.87849mm"
   height="71.254257mm"
   viewBox="0 0 193.87849 71.254257"
   version="1.1"
   id="svg8"
   inkscape:version="1.0.2 (e86c870879, 2021-01-15)"
   sodipodi:docname="thesquare.svg">
  <defs
     id="defs2" />
  <sodipodi:namedview
     id="base"
     pagecolor="#ffffff"
     bordercolor="#666666"
     borderopacity="1.0"
     inkscape:pageopacity="0.0"
     inkscape:pageshadow="2"
     inkscape:zoom="1"
     inkscape:cx="212.57958"
     inkscape:cy="322.29958"
     inkscape:document-units="mm"
     inkscape:current-layer="layer1"
     inkscape:document-rotation="0"
     showgrid="true"
     inkscape:snap-grids="true"
     inkscape:window-width="1920"
     inkscape:window-height="1057"
     inkscape:window-x="-8"
     inkscape:window-y="-8"
     inkscape:window-maximized="1"
     fit-margin-top="0"
     fit-margin-left="0"
     fit-margin-right="0"
     fit-margin-bottom="0">
    <inkscape:grid
       type="xygrid"
       id="grid888"
       originx="-7.0419997"
       originy="-8.3649163" />
  </sodipodi:namedview>
  <metadata
     id="metadata5">
    <rdf:RDF>
      <cc:Work
         rdf:about="">
        <dc:format>image/svg+xml</dc:format>
        <dc:type
           rdf:resource="http://purl.org/dc/dcmitype/StillImage" />
        <dc:title />
      </cc:Work>
    </rdf:RDF>
  </metadata>
  <g
     inkscape:label="Warstwa 1"
     inkscape:groupmode="layer"
     id="layer1"
     transform="translate(-7.0419998,-8.3649165)">
    <g
       id="g934"
       transform="matrix(1.7582135,0,0,1.7582135,43.50603,-6.3423928)"
       style="stroke:#000000;stroke-width:1.791;stroke-linecap:square;stroke-linejoin:miter;stroke-miterlimit:4;stroke-dasharray:none;stroke-opacity:1" />
    <g
       id="g946"
       style="stroke:#000000;stroke-width:1.791;stroke-linecap:square;stroke-linejoin:miter;stroke-miterlimit:4;stroke-dasharray:none;stroke-opacity:1"
       transform="matrix(1.7582135,0,0,1.7582135,-5.3393395,-6.3423928)">
      <path
         id="path924"
         style="fill:none;stroke:#ffffff;stroke-width:1.791;stroke-linecap:square;stroke-linejoin:miter;stroke-miterlimit:4;stroke-dasharray:none;stroke-opacity:0.87"
         d="m 100.54167,43.656249 h 15.875 v 0 m -15.875,0 V 27.78125 h 15.875 -15.875 v 7.9375 h 7.9375 m -26.458338,-7.9375 h 15.875 v 7.9375 h -15.875 7.9375 l 7.9375,7.937499 m -15.875,-15.874999 v 15.874999 z m -18.520833,7.9375 h 15.875 m -15.875,7.937499 V 27.78125 h 15.875 V 43.656249 M 44.979166,27.78125 v 15.874999 h 15.875 v -15.874999 0 m -22.489583,11.90625 7.9375,7.937499 M 26.458333,27.78125 V 43.656249 H 29.104166 31.75 34.395833 37.041666 39.6875 42.333333 V 27.78125 Z m -2.645833,0 H 7.9374999 v 7.9375 H 23.8125 v 2.645833 2.645833 2.645833 H 7.9374999 M 70.114583,9.2604166 V 25.135416 m 2.645834,1e-6 h 15.874999 m -15.874998,-7.9375 h 7.937499 m -7.9375,7.937499 v 0 -15.8749993 l 15.875,10e-8 M 54.239583,17.197917 h 15.875 m -15.875,-7.9375003 v 15.8749993 0 M 43.65625,9.2604166 v 15.8749994 0 M 35.71875,9.2604166 h 15.875 v 0" />
    </g>
  </g>
</svg>
